<svg
  width="262"
  height="67"
  viewBox="0 0 262 67"
  fill="none"
  xmlns="http://www.w3.org/2000/svg"
>
  <path
    d="M255.832 6.67495V2.25962H257.646C258.156 2.25962 258.551 2.3846 258.832 2.63457C259.113 2.87945 259.253 3.2187 259.253 3.65232V3.65997C259.253 3.94566 259.174 4.20073 259.016 4.4252C258.858 4.64966 258.636 4.80781 258.35 4.89964L259.391 6.67495H258.518L257.569 5.02973C257.559 5.02973 257.546 5.02973 257.531 5.02973C257.516 5.02973 257.501 5.02973 257.485 5.02973H256.598V6.67495H255.832ZM256.598 4.4252H257.562C257.847 4.4252 258.069 4.35888 258.228 4.22624C258.386 4.0885 258.465 3.90485 258.465 3.67528V3.66763C258.465 3.43806 258.383 3.25696 258.22 3.12432C258.057 2.98658 257.835 2.91771 257.554 2.91771H256.598V4.4252ZM260.967 4.4405C260.967 3.79261 260.814 3.20849 260.508 2.68814C260.202 2.16779 259.786 1.75457 259.261 1.44848C258.74 1.13729 258.159 0.981692 257.516 0.981692H257.462C256.814 0.981692 256.228 1.13729 255.702 1.44848C255.182 1.75457 254.766 2.16779 254.455 2.68814C254.149 3.20849 253.996 3.79261 253.996 4.4405V4.49407C253.996 5.13686 254.149 5.72098 254.455 6.24643C254.766 6.77188 255.182 7.18765 255.702 7.49374C256.228 7.79983 256.814 7.95288 257.462 7.95288H257.516C258.159 7.95288 258.74 7.79983 259.261 7.49374C259.786 7.18765 260.202 6.77188 260.508 6.24643C260.814 5.72098 260.967 5.13686 260.967 4.49407V4.4405ZM261.725 4.4405V4.49407C261.725 5.08074 261.615 5.6317 261.396 6.14695C261.181 6.6571 260.883 7.10348 260.5 7.48609C260.118 7.8687 259.671 8.16969 259.161 8.38906C258.651 8.60332 258.103 8.71045 257.516 8.71045H257.462C256.871 8.71045 256.317 8.60332 255.802 8.38906C255.292 8.16969 254.845 7.8687 254.463 7.48609C254.08 7.10348 253.779 6.6571 253.56 6.14695C253.345 5.6317 253.238 5.08074 253.238 4.49407V4.4405C253.238 3.84873 253.345 3.29777 253.56 2.78762C253.779 2.27747 254.08 1.83109 254.463 1.44848C254.845 1.06587 255.292 0.76743 255.802 0.553167C256.317 0.333803 256.871 0.224121 257.462 0.224121H257.516C258.103 0.224121 258.651 0.333803 259.161 0.553167C259.671 0.76743 260.118 1.06587 260.5 1.44848C260.883 1.83109 261.181 2.27747 261.396 2.78762C261.615 3.29777 261.725 3.84873 261.725 4.4405Z"
    fill="#E6E7E9"
  />
  <path
    d="M239.643 14.2329C243.738 14.2329 247.027 15.4521 249.511 17.8904C251.996 20.2827 253.238 23.3881 253.238 27.2066V51.7047H246.889V27.4136C246.889 25.0673 246.13 23.2271 244.612 21.8929C243.094 20.5587 241.138 19.8916 238.746 19.8916C235.572 19.8916 233.041 20.8118 231.155 22.652C229.269 24.4462 228.303 26.7235 228.257 29.4839V51.7047H221.839V15.13H227.153L227.636 20.0987C230.212 16.1882 234.214 14.2329 239.643 14.2329Z"
    fill="#E6E7E9"
  />
  <path
    d="M215.347 9.4023C214.013 9.4023 212.909 8.96524 212.035 8.09113C211.161 7.17102 210.724 6.06687 210.724 4.77871C210.724 3.49054 211.161 2.4094 212.035 1.53529C212.909 0.661177 214.013 0.224121 215.347 0.224121C216.635 0.224121 217.717 0.661177 218.591 1.53529C219.465 2.4094 219.902 3.49054 219.902 4.77871C219.902 6.06687 219.465 7.17102 218.591 8.09113C217.717 8.96524 216.635 9.4023 215.347 9.4023ZM212.173 51.7047V15.13H218.522V51.7047H212.173Z"
    fill="#E6E7E9"
  />
  <path
    d="M207.606 45.839H209.401V51.7047H206.502C204.478 51.7047 202.822 51.2907 201.534 50.4626C200.291 49.5885 199.578 48.3923 199.394 46.8741C196.818 50.4626 192.677 52.2568 186.973 52.2568C182.97 52.2568 179.704 51.2907 177.173 49.3584C174.643 47.3802 173.378 44.8268 173.378 41.6984C173.378 38.8921 174.252 36.6378 176 34.9356C177.794 33.2334 179.934 32.1062 182.418 31.5541C184.948 30.9561 187.456 30.542 189.94 30.312C192.47 30.0359 194.61 29.7369 196.358 29.4149C198.152 29.0468 199.049 28.4487 199.049 27.6206C199.049 25.1363 198.267 23.2041 196.703 21.8239C195.185 20.3977 193.022 19.6846 190.216 19.6846C187.548 19.6846 185.316 20.2827 183.522 21.4788C181.774 22.675 180.808 24.2162 180.624 26.1024H174.275C174.643 22.56 176.299 19.7076 179.244 17.5453C182.188 15.3371 185.846 14.2329 190.216 14.2329C195.001 14.2329 198.704 15.4521 201.327 17.8904C203.995 20.3287 205.329 23.7331 205.329 28.1037V43.4927C205.329 45.0569 206.088 45.839 207.606 45.839ZM187.801 46.9431C191.481 46.9431 194.265 46.092 196.151 44.3898C198.037 42.6416 199.003 40.3183 199.049 37.4199V33.4864C198.543 34.1305 197.209 34.6135 195.047 34.9356C192.884 35.2116 190.699 35.4186 188.491 35.5566C186.283 35.6487 184.281 36.1777 182.487 37.1439C180.693 38.11 179.796 39.5362 179.796 41.4224C179.796 43.0786 180.532 44.4128 182.004 45.4249C183.476 46.437 185.408 46.9431 187.801 46.9431Z"
    fill="#E6E7E9"
  />
  <path
    d="M165.83 15.13H170.868V50.5316C170.868 55.2702 169.28 59.0887 166.106 61.987C162.978 64.9314 158.837 66.4036 153.684 66.4036C148.624 66.4036 144.552 65.2765 141.47 63.0222C138.388 60.7679 136.846 57.7315 136.846 53.913H143.264C143.264 56.0753 144.207 57.7775 146.094 59.0197C148.026 60.2618 150.556 60.8829 153.684 60.8829C156.951 60.8829 159.573 59.9168 161.552 57.9845C163.53 56.0983 164.519 53.614 164.519 50.5316V46.8741C161.713 50.6466 157.802 52.5328 152.787 52.5328C147.497 52.5328 143.287 50.7386 140.159 47.1501C137.076 43.5617 135.535 39.0071 135.535 33.4864C135.535 27.5516 137.145 22.859 140.366 19.4086C143.632 15.9581 147.773 14.2329 152.787 14.2329C158.078 14.2329 162.265 16.3032 165.347 20.4437L165.83 15.13ZM145.334 43.2166C147.405 45.701 150.073 46.9431 153.339 46.9431C156.606 46.9431 159.274 45.6319 161.344 43.0096C163.461 40.3873 164.519 37.0288 164.519 32.9343C164.519 29.0698 163.461 25.9184 161.344 23.4801C159.274 21.0418 156.606 19.8226 153.339 19.8226C150.073 19.8226 147.405 21.1108 145.334 23.6871C143.264 26.2175 142.229 29.4839 142.229 33.4864C142.229 37.4429 143.264 40.6863 145.334 43.2166Z"
    fill="#E6E7E9"
  />
  <path
    d="M76.0881 52.5328C70.5214 52.5328 66.1049 50.7386 62.8384 47.1501C59.618 43.5157 58.0078 38.8231 58.0078 33.0723C58.0078 27.2756 59.71 22.698 63.1145 19.3396C66.5189 15.9351 70.8435 14.2329 76.0881 14.2329C81.6549 14.2329 86.0484 16.0041 89.2688 19.5466C92.5352 23.089 94.1685 27.5976 94.1685 33.0723C94.1685 39.0991 92.4892 43.8607 89.1308 47.3572C85.7724 50.8076 81.4248 52.5328 76.0881 52.5328ZM76.0881 46.9431C79.6766 46.9431 82.506 45.6319 84.5762 43.0096C86.6925 40.3873 87.7506 37.0748 87.7506 33.0723C87.7506 29.1158 86.6695 25.9184 84.5072 23.4801C82.3909 21.0418 79.5846 19.8226 76.0881 19.8226C72.5917 19.8226 69.7623 21.0418 67.6 23.4801C65.4838 25.9184 64.4256 29.1158 64.4256 33.0723C64.4256 37.3509 65.5298 40.7323 67.7381 43.2166C69.9463 45.701 72.7297 46.9431 76.0881 46.9431Z"
    fill="#E6E7E9"
  />
  <path
    d="M115.083 52.5327C109.222 52.5327 104.571 50.7308 101.132 47.127C97.7413 43.4769 96.0459 38.7643 96.0459 32.9889C96.0459 27.1674 97.8382 22.5702 101.423 19.1974C105.007 15.7784 109.561 14.0688 115.083 14.0688C120.944 14.0688 125.571 15.8477 128.961 19.4053C132.401 22.9629 134.036 27.4908 134.036 32.9889C134.036 39.0415 132.352 43.8235 128.816 47.3349C125.28 50.8001 120.702 52.5327 115.083 52.5327ZM115.083 46.9191C118.861 46.9191 121.841 45.6023 124.02 42.9687C126.249 40.3352 127.363 37.0086 127.363 32.9889C127.363 29.0155 126.224 25.8044 123.948 23.3556C121.719 20.9069 118.765 19.6825 115.083 19.6825C111.402 19.6825 108.423 20.9069 106.146 23.3556C103.918 25.8044 102.803 29.0155 102.803 32.9889C102.803 37.2858 103.966 40.6817 106.291 43.1766C108.616 45.6716 111.547 46.9191 115.083 46.9191Z"
    fill="url(#paint0_linear_2023_138)"
  />
  <path
    fill-rule="evenodd"
    clip-rule="evenodd"
    d="M134.036 33.0922V32.6172H127.362V33.0922C127.343 37.0654 126.229 40.3574 124.02 42.9683C121.84 45.6019 118.861 46.9186 115.083 46.9186C111.547 46.9186 108.616 45.6712 106.291 43.1762C105.814 42.6641 105.385 42.114 105.006 41.526L100.828 46.7916C100.928 46.9043 101.029 47.0159 101.132 47.1266C104.571 50.7304 109.221 52.5323 115.083 52.5323C120.702 52.5323 125.28 50.7997 128.816 47.3345C132.332 43.8431 134.016 39.0957 134.036 33.0922Z"
    fill="url(#paint1_linear_2023_138)"
  />
  <path
    d="M57.303 14.854H58.5451V21.0648H57.303C53.3925 21.0648 50.4021 22.0769 48.3318 24.1012C46.2616 26.0794 45.2264 28.9548 45.2264 32.7273V51.7047H38.8086V15.13H43.8462L44.6743 22.238C46.9746 17.3153 51.1842 14.854 57.303 14.854Z"
    fill="#E6E7E9"
  />
  <path
    d="M19.2596 14.0845C24.3811 14.0845 28.4644 15.8839 31.5096 19.4828C34.5547 23.0816 36.0773 27.6263 36.0773 33.1169C36.0773 39.0688 34.4855 43.7981 31.3019 47.3047C28.1183 50.7651 24.1042 52.4953 19.2596 52.4953C13.9997 52.4953 9.91642 50.6728 7.00966 47.0278V65.5066H0.573242V14.9842H5.62548L6.24836 20.5901C9.33968 16.253 13.6768 14.0845 19.2596 14.0845ZM18.6367 46.8202C21.9126 46.8202 24.5195 45.5283 26.4573 42.9445C28.4413 40.3146 29.4333 37.0387 29.4333 33.1169C29.4333 29.0566 28.3952 25.8038 26.3189 23.3584C24.2888 20.9131 21.7281 19.6904 18.6367 19.6904C14.9917 19.6904 12.1311 20.9361 10.0548 23.4277C8.02472 25.873 7.00966 29.0105 7.00966 32.84C7.00966 37.1771 8.09393 40.5914 10.2625 43.0829C12.4771 45.5744 15.2686 46.8202 18.6367 46.8202Z"
    fill="#E6E7E9"
  />
  <path
    fill-rule="evenodd"
    clip-rule="evenodd"
    d="M127.007 13.8622C131.872 19.5544 134.031 26.0698 134.031 32.6275H127.361C127.361 27.6097 125.737 22.6432 121.936 18.1956C118.107 13.7146 111.926 9.60271 102.589 6.63589L104.609 0.279053C114.803 3.51822 122.171 8.20366 127.007 13.8622Z"
    fill="url(#paint2_linear_2023_138)"
  />
  <path
    d="M133.042 6.56063V0L102.553 0V6.56063L133.042 6.56063Z"
    fill="url(#paint3_linear_2023_138)"
  />
  <defs>
    <linearGradient
      id="paint0_linear_2023_138"
      x1="104.411"
      y1="40.0678"
      x2="131.04"
      y2="20.2558"
      gradientUnits="userSpaceOnUse"
    >
      <stop stop-color="#764DFA" />
      <stop offset="0.460261" stop-color="#6A41F5" stop-opacity="0.7" />
      <stop offset="0.901369" stop-color="#5F35F0" stop-opacity="0" />
      <stop offset="1" stop-color="#5F35F0" stop-opacity="0" />
    </linearGradient>
    <linearGradient
      id="paint1_linear_2023_138"
      x1="104.411"
      y1="40.0675"
      x2="127.362"
      y2="32.6172"
      gradientUnits="userSpaceOnUse"
    >
      <stop stop-color="#754DFA" />
      <stop offset="1" stop-color="#895CFC" />
    </linearGradient>
    <linearGradient
      id="paint2_linear_2023_138"
      x1="115.913"
      y1="6.6682"
      x2="115.913"
      y2="32.6275"
      gradientUnits="userSpaceOnUse"
    >
      <stop stop-color="#BA91FF" />
      <stop offset="1" stop-color="#895CFC" />
    </linearGradient>
    <linearGradient
      id="paint3_linear_2023_138"
      x1="133.042"
      y1="3.28031"
      x2="102.553"
      y2="3.28031"
      gradientUnits="userSpaceOnUse"
    >
      <stop stop-color="#BF94FF" />
      <stop offset="1" stop-color="#BA91FF" />
    </linearGradient>
  </defs>
</svg>
